<svg fill="none" xmlns="http://www.w3.org/2000/svg" viewBox="0 0 32 32"><g clip-path="url(#clip0_42_2)"><rect width="32" height="32" rx="16" fill="#009131"/><path fill-rule="evenodd" clip-rule="evenodd" d="M31.063 10.593C31.67 12.282 32 14.103 32 16c0 6.808-4.253 12.624-10.247 14.934a4.402 4.402 0 01-.167-.521c-.207-.813-.24-1.792-.166-2.823.08-1.102.29-2.361.622-3.708-.158.043-.319.083-.48.12-2.232.513-5.085.54-8.061.025-2.976-.514-5.648-1.495-7.566-2.724-.956-.613-1.787-1.328-2.356-2.136-.575-.815-.938-1.813-.744-2.89.194-1.078.884-1.894 1.708-2.468.817-.568 1.847-.961 2.96-1.217.7-.16 1.462-.274 2.27-.337a14.902 14.902 0 01-.854-2.13c-.33-1.072-.498-2.143-.404-3.12.094-.986.471-1.98 1.327-2.683.855-.703 1.919-.894 2.927-.814.998.079 2.046.427 3.066.931 2.045 1.013 4.248 2.79 6.19 5.058 1.568 1.83 2.784 3.768 3.544 5.578.381-.65.77-1.243 1.157-1.767.619-.836 1.287-1.565 1.979-2.057.565-.402 1.416-.829 2.358-.658zM14.496 7.036c1.607.796 3.508 2.29 5.255 4.33a20.618 20.618 0 012.34 3.323c-1.795-.946-4.057-1.695-6.528-2.121a25.904 25.904 0 00-2.423-.304c-.637-1.062-1.1-2.078-1.379-2.98-.26-.847-.336-1.523-.29-2.006.046-.475.193-.656.28-.727.086-.071.294-.182.778-.143.494.039 1.16.229 1.967.628zm8.81 12.766c.018-.113.003-.342-.264-.722-.282-.4-.783-.87-1.539-1.354-1.24-.794-2.996-1.52-5.07-2.01-.277-.066-.461.248-.265.45 1.463 1.502 2.974 2.62 4.289 3.271.806.4 1.472.59 1.966.628.485.039.693-.072.78-.143a.514.514 0 00.104-.12zM11.47 15.104c-1.244-.007-2.362.108-3.29.32-.879.203-1.514.477-1.918.758-.396.275-.483.491-.503.6-.02.109-.013.34.263.733.282.399.783.87 1.539 1.354 1.507.966 3.779 1.831 6.455 2.293 1.464.253 2.856.352 4.104.325-1.75-1.05-3.564-2.608-5.193-4.51a24.965 24.965 0 01-1.457-1.873zm17.66-.088c-1.047 1.414-2.19 3.565-3.137 6.118-.949 2.552-1.485 4.92-1.61 6.662-.038.518-.037.95-.01 1.3.018.218.27.308.426.152.25-.25.535-.581.846-1.001 1.047-1.415 2.19-3.566 3.138-6.118.948-2.553 1.484-4.92 1.61-6.663.037-.517.036-.95.009-1.3-.017-.218-.27-.308-.426-.151-.25.25-.535.58-.846 1z" fill="#fff"/></g><defs><clipPath id="clip0_42_2"><path fill="#fff" d="M0 0h32v32H0z"/></clipPath></defs></svg>