<svg width="17" height="17" viewBox="0 0 17 17" fill="none" xmlns="http://www.w3.org/2000/svg">
<mask id="mask0_27_161" style="mask-type:luminance" maskUnits="userSpaceOnUse" x="0" y="3" width="17" height="11">
<path fill-rule="evenodd" clip-rule="evenodd" d="M0.5 3.19283H16.4898V13.5501H0.5V3.19283Z" fill="white"/>
</mask>
<g mask="url(#mask0_27_161)">
<path fill-rule="evenodd" clip-rule="evenodd" d="M16.4482 7.4797C16.2911 6.54643 15.5817 5.79769 14.9554 5.29707V5.29701C14.2968 4.73731 13.5471 4.33179 12.7555 3.99698C12.6572 3.95259 12.5611 3.90216 12.4601 3.86483C10.8996 3.28753 9.28822 3.08113 7.63572 3.24972C7.06149 3.30833 6.48964 3.39117 5.93018 3.5331C5.39815 3.66803 4.56893 3.98975 4.25622 4.12705C3.67412 4.38258 3.11424 4.67816 2.62191 5.08071C2.53515 5.15159 2.28668 5.34483 2.2273 5.39544C1.96644 5.61754 1.67773 5.90892 1.4817 6.19562C1.16265 6.62365 0.879628 7.0688 0.717495 7.57132C0.687273 7.66507 0.605317 7.8947 0.553761 8.2739C0.502087 8.65369 0.473643 9.02785 0.533969 9.40634C0.546828 9.48699 0.590621 9.76024 0.600043 9.81488C0.620961 9.93665 0.666058 10.0525 0.784517 10.1505C0.784517 9.92853 0.769939 9.70608 0.784517 9.48456C0.815035 9.02086 0.88265 8.752 0.911687 8.65345C0.942739 8.54845 0.977939 8.44456 1.02019 8.34252C1.57545 7.00142 2.59921 6.10898 3.83092 5.42288C4.97065 4.78791 6.19915 4.45002 7.47945 4.29523C7.61486 4.27882 8.00544 4.2627 8.06422 4.26027C9.60461 4.19728 11.0734 4.46353 12.4391 5.20705C12.9067 5.50086 13.3085 5.8723 13.6898 6.26791C13.6898 6.26791 13.6899 6.26791 13.6899 6.26797C14.2353 6.98815 14.325 7.7773 14.0464 8.62222C14.0386 8.63461 14.0327 8.64759 14.029 8.66039C13.692 9.4147 13.1757 10.0334 12.5656 10.5812C12.0697 10.9981 11.5802 11.4229 11.0365 11.7786V11.7787C10.9141 11.7841 10.9011 11.7173 10.8765 11.6454C10.8492 11.5649 10.8393 11.5074 10.8325 11.4809C10.7872 11.3033 10.8076 11.0607 10.5043 11.0729C9.83767 11.1969 9.17385 11.3396 8.50369 11.4393C7.8449 11.5374 7.18144 11.6823 6.51382 11.4827C6.41912 11.4158 6.37776 11.3263 6.3681 11.2086C6.298 10.3476 6.89219 9.56451 7.74078 9.40439C8.16555 9.32421 8.58535 9.35562 8.9953 9.47882C9.19827 9.53979 9.32893 9.48142 9.45166 9.32142C9.77172 8.90406 9.97853 8.42341 10.2259 7.96551C10.2874 7.85168 10.2838 7.74021 10.1488 7.67052H10.1488C10.0344 7.62133 9.91809 7.65067 9.80117 7.65902C9.06576 7.71171 8.35115 7.88705 7.62908 8.01896C7.51234 8.0403 7.34961 8.13979 7.29557 7.91941C7.31827 7.79372 7.33841 7.66744 7.36413 7.54234C7.51163 6.824 7.75412 6.62104 8.49112 6.60948C8.96277 6.60208 9.48324 6.58892 9.90262 6.67579C10.4396 6.7843 10.517 6.87378 10.6473 6.95402C10.7119 6.99384 10.7705 7.02667 10.8524 6.97369C11.0938 6.85932 11.1598 6.71242 11.3955 6.44486V6.4448C11.5555 6.23496 11.7176 6.02685 11.8745 5.81482C11.9868 5.66317 11.9872 5.5267 11.8 5.42981C11.7435 5.40231 11.7062 5.40634 11.6559 5.40486C11.2213 5.38661 10.0251 5.42092 9.87536 5.41837C8.82843 5.40071 7.81557 5.43982 6.76858 5.42453C6.63708 5.42264 6.48449 5.38519 6.41148 5.55419C6.20544 5.83372 6.06025 6.14613 5.92478 6.46305C5.30855 7.90513 4.83987 9.39662 4.45189 10.9139C4.32058 11.4273 4.1732 11.9415 4.21432 12.4825C4.20407 12.7782 4.33978 12.9104 4.64224 12.9089C5.7956 12.9034 7.24941 12.9091 8.40277 12.9106C8.36141 13.0146 7.7844 13.1313 7.6308 13.1433C7.00277 13.1927 6.63927 13.2277 6.00656 13.1931C5.94357 13.1896 5.6353 13.1951 5.62369 13.2494C5.61403 13.2945 5.86392 13.3595 5.91003 13.3685C6.09747 13.4045 6.48905 13.4686 6.64947 13.4869C6.85029 13.5096 7.05118 13.5303 7.25261 13.5393C8.33456 13.5877 9.39898 13.4757 10.4372 13.1595C10.4601 13.1538 10.4833 13.1464 10.5064 13.1387C11.3189 12.9495 12.0845 12.6372 12.8184 12.2459C13.9875 11.6226 15.0604 10.8748 15.8482 9.78578C16.3438 9.10039 16.5951 8.35265 16.4482 7.4797Z" fill="#AFADAD"/>
</g>
</svg>
