<svg width="320" height="209" viewBox="0 0 320 209" fill="none" xmlns="http://www.w3.org/2000/svg">
<g clip-path="url(#clip0_1_62)">
<path fill-rule="evenodd" clip-rule="evenodd" d="M153.243 111.992C155.219 111.459 157.277 111.152 159.357 111.076H159.359C161.426 111.149 163.478 111.457 165.476 111.994C175.879 114.79 183.415 123.47 184.677 134.107C184.743 134.659 184.995 135.172 185.391 135.561C185.788 135.95 186.306 136.192 186.859 136.247C192.515 136.803 198.557 140.029 203.021 144.874C206.942 149.129 209.243 154.1 209.675 159.251V159.253C209.826 161.045 209.726 162.885 209.376 164.722L209.357 164.83C209.022 167.162 207.893 170.996 206.209 173.9C202.415 180.457 196.132 184.064 185.199 185.966C180.177 186.84 175.419 187.46 159.875 187.46L159.332 187.461L158.841 187.46C143.297 187.46 138.539 186.84 133.517 185.966C122.583 184.064 116.3 180.456 112.505 173.9C110.82 170.994 109.693 167.162 109.358 164.83L109.34 164.722C108.992 162.92 108.891 161.079 109.04 159.251C109.472 154.1 111.774 149.128 115.696 144.873C120.157 140.029 126.198 136.803 131.855 136.247C132.409 136.192 132.927 135.95 133.323 135.561C133.72 135.172 133.972 134.659 134.038 134.107C135.3 123.47 142.836 114.79 153.243 111.992ZM159.312 192.337H159.348H159.406L159.875 192.335C174.387 192.335 180.07 191.808 186.034 190.77C194.342 189.324 204.62 186.381 210.429 176.344C212.571 172.648 213.784 168.251 214.176 165.579C214.599 163.359 214.719 161.093 214.534 158.841C214.009 152.601 211.269 146.629 206.607 141.568C201.765 136.314 195.524 132.772 189.24 131.656C187.119 119.892 178.465 110.435 166.744 107.285C164.443 106.664 162.055 106.302 159.644 106.208C159.546 106.198 159.446 106.191 159.351 106.195C159.256 106.191 159.17 106.199 159.081 106.208C156.665 106.302 154.275 106.663 151.974 107.284C140.251 110.435 131.596 119.891 129.475 131.656C123.188 132.772 116.948 136.314 112.111 141.568C107.445 146.628 104.704 152.601 104.181 158.843C103.996 161.094 104.117 163.36 104.54 165.579C104.932 168.249 106.142 172.646 108.286 176.343C114.095 186.38 124.375 189.326 132.68 190.77C138.645 191.808 144.329 192.335 158.841 192.335L159.312 192.337ZM175.549 157.146C175.505 157.941 176.781 159.553 177.867 160.355C179.082 161.252 179.063 162.795 178.343 163.768C177.899 164.369 177.271 164.683 176.621 164.683C176.175 164.683 175.717 164.535 175.306 164.231C174.935 163.956 174.597 163.663 174.283 163.361C169.926 165.775 164.795 166.978 159.667 166.978C154.171 166.978 148.686 165.595 144.159 162.845C143.706 163.223 143.268 163.548 142.899 163.822L142.895 163.826C142.503 164.118 142.065 164.267 141.626 164.267C141.36 164.267 141.094 164.21 140.84 164.1C140.115 163.787 139.586 163.046 139.488 162.208C139.439 161.805 139.498 161.396 139.659 161.023C139.821 160.651 140.078 160.328 140.405 160.087C141.932 158.951 143.086 157.975 142.913 156.593C142.761 155.395 143.522 154.415 144.72 154.264C145.863 154.122 147.212 154.854 147.393 156.294C147.539 157.43 147.351 158.585 146.849 159.616C154.015 163.899 164.103 164.056 171.692 160.057C171.186 159.165 170.836 158.173 170.903 157.011C170.951 156.163 171.424 155.433 172.169 155.057C172.941 154.669 173.891 154.714 174.59 155.172C175.247 155.603 175.596 156.323 175.549 157.146Z" fill="#297EF1"/>
<path opacity="0.722" fill-rule="evenodd" clip-rule="evenodd" d="M190.58 108.422C190.26 108.817 189.509 108.808 189.112 107.299C188.165 103.688 186.201 94.8459 186.128 94.4449C185.736 92.2692 187.755 92.2499 188.133 93.5119C188.463 94.6143 188.81 95.7116 189.156 96.809L189.156 96.8095L189.156 96.81C189.524 97.9753 189.892 99.1409 190.241 100.313C190.312 100.554 190.386 100.795 190.459 101.037L190.459 101.038L190.459 101.038C190.614 101.547 190.77 102.058 190.909 102.571C189.349 94.7328 194.92 86.9461 200.504 82.0009C200.942 81.6128 201.388 81.2363 201.842 80.8713C202.582 80.163 203.351 79.4847 204.146 78.8382L204.568 78.4947C207.211 76.3435 208.063 75.6499 211.465 74.3016C213.928 73.3262 215.269 76.2782 213.333 77.1084C209.153 78.8997 207.748 80.1362 204.449 83.0392L204.446 83.0413C204.196 83.2616 203.934 83.4915 203.66 83.732C200.803 86.2367 198.369 89.2517 196.336 92.4787C194.502 95.3869 192.828 98.5818 192.189 101.989C192.174 102.099 192.161 102.208 192.148 102.317C192.144 102.353 192.14 102.39 192.135 102.426C192.133 102.449 192.13 102.471 192.127 102.494C192.69 101.657 193.262 100.825 193.833 99.9935C194.984 98.3179 196.135 96.6425 197.218 94.923C198.433 92.9953 200.472 94.5246 199.071 96.5358C198.742 97.0088 198.42 97.4857 198.098 97.9624L198.097 97.9627L198.097 97.9633C197.415 98.9722 196.733 99.9805 195.994 100.949C194.438 103.594 192.517 106.019 190.58 108.422ZM161.091 89.6287C161.614 88.8257 162.136 88.0228 162.646 87.2147C163.244 86.2675 164.922 86.5785 164.107 88.2492C163.958 88.5564 160.346 95.2905 158.746 98.024C158.08 99.1639 157.452 99.0598 157.273 98.7026C156.193 96.5063 155.134 94.301 154.428 91.9684C154.031 91.0985 153.689 90.2039 153.348 89.3093L153.348 89.3092L153.348 89.3091L153.348 89.3088C153.183 88.8767 153.018 88.4447 152.847 88.0153C152.13 86.2097 154.172 85.2934 154.754 87.0026C155.279 88.543 155.87 90.0576 156.462 91.5725L156.462 91.5727L156.462 91.5728L156.462 91.573L156.462 91.5732C156.746 92.3015 157.031 93.0298 157.308 93.7612L157.371 93.3538C157.502 91.7386 157.244 87.5853 157.011 83.8357C156.84 81.0815 156.682 78.545 156.702 77.3923C156.76 74.0728 158.822 73.8351 159.315 76.5185C159.999 80.2389 160.108 90.461 158.306 94.0028C158.544 93.6021 158.796 93.2071 159.048 92.8129C159.155 92.6445 159.263 92.4762 159.369 92.3077C159.932 91.4097 160.511 90.5191 161.091 89.6287ZM118.829 204.345C122.234 205.536 130.971 206.567 138.016 206.98C157.245 208.104 184.117 207.494 195.505 205.421C206.982 203.334 207.496 200.175 178.318 198.608C153.479 197.275 124.484 199.176 118.282 202.003C116.618 202.763 116.71 203.606 118.828 204.345H118.829ZM125.632 103.837C125.707 103.591 125.781 103.346 125.854 103.101C126.199 101.944 126.562 100.794 126.925 99.6442C127.276 98.5323 127.627 97.4203 127.961 96.3021C128.341 95.0401 130.358 95.0594 129.966 97.2339C129.893 97.6361 127.931 106.477 126.982 110.088C126.586 111.597 125.836 111.607 125.515 111.211C123.578 108.809 121.657 106.383 120.102 103.739C119.354 102.761 118.666 101.743 117.977 100.724C117.661 100.257 117.345 99.7896 117.024 99.3261C115.624 97.3135 117.662 95.7842 118.877 97.7119C119.956 99.4238 121.102 101.092 122.247 102.761C122.823 103.6 123.4 104.439 123.967 105.284L123.907 104.778C123.268 101.372 121.592 98.1746 119.76 95.2676C117.719 92.0387 115.256 89.0975 112.436 86.5222C108.17 82.6179 106.024 80.964 101.089 78.3487C99.2026 77.3489 101.422 73.4973 105.382 76.466C107.952 78.3937 108.967 79.2033 111.949 81.6271C112.744 82.2736 113.513 82.9519 114.254 83.6602C114.708 84.0252 115.155 84.403 115.592 84.7898C121.176 89.7363 126.746 97.5204 125.186 105.36C125.324 104.85 125.478 104.343 125.632 103.837Z" fill="#BBD9FD"/>
<path d="M92.7287 43.9795C83.399 32.8678 83.9231 34.1257 74.8031 23.2236C73.9645 22.0705 72.8114 20.8125 71.4486 20.6029C69.5617 20.2884 68.1989 21.8608 66.941 23.2236C55.0954 34.4402 44.1933 44.923 32.3477 56.1396C32.2429 56.2444 32.1381 56.2444 32.0332 56.3493C31.4043 56.8734 30.7753 57.3975 30.356 58.0265C29.727 58.8651 29.3077 59.9134 29.727 60.9617C29.8318 61.4858 30.1463 61.9051 30.4608 62.3245C30.4608 62.4293 30.4608 62.4293 30.5656 62.5341C30.6705 62.7438 30.7753 62.8486 30.985 62.9534C31.1946 63.1631 31.2994 63.3727 31.5091 63.5824C31.5091 63.6872 31.6139 63.6872 31.6139 63.6872C40.5243 74.4845 41.5726 76.8956 51.1119 88.3218C51.6361 88.846 52.0554 89.4749 52.6844 89.8942C53.523 90.4184 54.4664 90.7329 55.4099 90.2087C56.3533 89.6846 57.0871 88.846 57.9258 88.1122C58.0306 88.0073 58.0306 87.9025 58.1354 87.7977C69.352 76.2666 80.4638 64.7355 91.6804 53.2044C91.7852 53.0996 91.7852 52.9948 91.8901 52.8899C92.2045 52.5754 92.519 52.3658 92.7287 52.0513C93.4625 51.3175 94.0915 50.5837 94.4059 49.6403C94.5108 49.3258 94.7204 49.0113 94.7204 48.6968C95.0349 47.1244 93.8818 45.3423 92.7287 43.9795Z" fill="#FFB15C"/>
<path d="M79.4155 77.8389C77.4238 71.8637 67.4651 73.2265 63.3768 75.8472C59.9175 78.0486 54.8858 80.5645 51.9506 83.6045C51.3216 84.2334 51.0071 84.8624 50.9023 85.4914C50.483 85.8059 50.2733 86.4348 50.483 87.0638C51.3216 88.9507 52.9989 90.7328 55.0954 90.9424C56.7727 91.1521 58.4499 91.1521 60.232 91.1521C61.1754 91.2569 62.2237 91.2569 63.1672 91.3617C65.0541 91.4666 66.941 91.4666 68.6182 91.0473C70.1907 90.6279 71.3438 89.6845 72.4969 88.5314C75.0127 85.8059 77.6335 82.7658 79.9397 79.7258C80.4638 78.992 80.0445 78.1534 79.4155 77.8389Z" fill="#FFB15C"/>
<path d="M69.5617 89.1607C69.2472 89.1607 68.8279 89.0558 68.4086 88.7414C67.8844 88.5317 67.57 88.1124 67.1506 87.6931L66.8362 87.3786C61.4899 81.8227 58.4499 78.3634 55.6196 75.1137C52.894 72.0737 50.0637 68.824 45.3464 63.8971V63.7923L45.2416 63.6874C45.0319 63.4778 44.9271 63.2681 44.7174 63.1633L44.2981 62.744C44.2981 62.744 44.2981 62.6392 44.1933 62.6392C43.774 62.2199 43.6691 61.9054 43.5643 61.5909C43.4595 61.2764 43.3547 60.6474 43.8788 59.8088C44.1933 59.3895 44.6126 58.9702 45.0319 58.6557L45.3464 58.3412L45.5561 58.2364L45.6609 58.1316C51.5313 52.5757 57.2968 47.0198 62.8527 41.5687C67.9893 36.537 73.1258 31.61 78.4721 26.4735L78.6817 26.2638C79.6252 25.2155 80.5686 24.2721 81.7217 24.2721C81.8266 24.2721 81.9314 24.2721 82.0362 24.2721C82.8748 24.3769 83.8183 25.1107 84.9714 26.3686C90.0032 31.5052 92.3094 33.8114 94.6156 36.1177C97.1315 38.5287 99.4377 40.7301 104.574 46.1812C106.042 47.5439 106.776 48.9067 106.671 49.8501C106.671 50.0598 106.566 50.2695 106.461 50.4791V50.5839V50.6888C106.252 51.3177 105.937 51.8419 105.203 52.5757C104.889 52.8902 104.679 53.0998 104.365 53.4143L104.26 53.5191L104.155 53.8336C93.6721 64.8406 83.1893 76.0572 72.7065 87.1689L72.6017 87.2738L72.4969 87.4834C72.2872 87.6931 72.1824 87.7979 71.9727 88.0076C71.4486 88.5317 71.0293 89.0558 70.4003 89.2655C70.0858 89.1607 69.7713 89.1607 69.5617 89.1607Z" fill="#FEC267"/>
<path d="M81.6169 25.2157C81.7217 25.2157 81.7218 25.2157 81.8266 25.2157C82.1411 25.2157 82.8749 25.5302 84.028 26.8929V26.9978L84.1328 27.1026C89.0597 32.2392 91.4708 34.5454 93.777 36.7468C96.188 39.1578 98.5991 41.3592 103.736 46.8103C105.203 48.173 105.518 49.2213 105.413 49.5358C105.413 49.6406 105.308 49.7454 105.308 49.9551L105.203 50.0599V50.1648C105.098 50.5841 104.784 51.0034 104.155 51.6324V51.7372C103.945 51.9468 103.736 52.1565 103.526 52.471L103.316 52.6806L103.212 52.8903C92.7287 64.0021 82.3507 75.009 71.8679 86.1208L71.6582 86.3304L71.4486 86.6449C71.3438 86.7498 71.1341 86.9594 71.0293 87.0643C70.61 87.4836 70.1907 87.9029 69.7713 88.1125C69.6665 88.1125 69.5617 88.2174 69.5617 88.2174C69.4569 88.2174 69.2472 88.1125 68.9327 88.0077H68.8279H68.7231C68.4086 87.9029 68.0941 87.5884 67.7796 87.1691C67.6748 87.0642 67.57 86.9594 67.4651 86.8546C62.1189 81.2987 59.0789 77.9442 56.2485 74.6945C53.523 71.6545 50.6926 68.4048 45.8705 63.4779L45.7657 63.3731L45.6609 63.2683C45.5561 63.0586 45.3464 62.9538 45.2416 62.7441L45.1367 62.6393L45.0319 62.5345C45.0319 62.5345 45.0319 62.5345 45.0319 62.4296V62.3248L44.9271 62.22C44.7174 61.9055 44.5078 61.6959 44.5078 61.4862C44.5078 61.3814 44.4029 61.1717 44.7174 60.7524V60.6476V60.5427C44.8223 60.3331 45.2416 60.0186 45.5561 59.7041C45.6609 59.5993 45.7657 59.5993 45.7657 59.4945L45.9754 59.3896L46.185 59.18C52.0554 53.5193 57.8209 47.9634 63.272 42.5123C68.3037 37.5854 73.5452 32.5536 78.8914 27.3122L79.101 27.1026C80.1493 26.0543 80.9879 25.2157 81.6169 25.2157ZM81.6169 23.1191C79.9397 23.1191 78.7866 24.4819 77.6335 25.635C66.4168 36.4323 56.1437 46.6006 44.9271 57.3979C44.8223 57.5027 44.7174 57.5027 44.6126 57.6076C44.0885 58.1317 43.4595 58.551 43.0402 59.18C42.4112 60.0186 42.2016 60.9621 42.516 62.0103C42.7257 62.5345 43.0402 62.849 43.3547 63.2683C43.3547 63.3731 43.4595 63.3731 43.4595 63.4779C43.5643 63.5828 43.774 63.7924 43.8788 63.8972C44.0885 64.1069 44.2981 64.3166 44.4029 64.5262C44.4029 64.631 44.5078 64.631 44.6126 64.631C54.4664 74.9042 55.6196 77.2104 66.2072 88.1125C66.7313 88.6367 67.2555 89.2656 67.9893 89.5801C68.5134 89.8946 69.1424 90.1043 69.6665 90.1043C70.0858 90.1043 70.4003 89.9994 70.8196 89.7898C71.7631 89.3705 72.4969 88.427 73.2307 87.6932C73.3355 87.5884 73.3355 87.4836 73.4403 87.3787C83.9231 76.267 94.4059 65.1552 104.994 54.0434C105.098 53.9386 105.098 53.8337 105.203 53.7289C105.518 53.4144 105.727 53.2048 106.042 52.8903C106.776 52.1565 107.3 51.4227 107.614 50.5841C107.719 50.2696 107.824 49.9551 107.929 49.6406C108.138 48.0682 106.88 46.3909 105.623 45.133C95.3494 34.5454 96.0832 35.8033 86.0197 25.4253C85.0762 24.2722 83.8183 23.1191 82.4555 23.0143C81.9314 23.1191 81.8266 23.1191 81.6169 23.1191Z" fill="#FF8E8E"/>
<path d="M93.5034 34.7141L54.717 74.0247L43.1859 60.9211L81.9723 23.7072L93.5034 34.7141Z" fill="#FF8E8E"/>
<path fill-rule="evenodd" clip-rule="evenodd" d="M62.2348 59.5285C63.8723 57.891 66.5273 57.891 68.1648 59.5285L70.2613 61.625C71.8989 63.2626 71.8989 65.9175 70.2613 67.555C68.6238 69.1925 65.9689 69.1925 64.3314 67.555L62.2348 65.4585C60.5973 63.8209 60.5973 61.166 62.2348 59.5285Z" fill="#FFE2A1"/>
<path fill-rule="evenodd" clip-rule="evenodd" d="M77.959 42.7559C79.5965 41.1184 82.2515 41.1184 83.889 42.7559L85.9855 44.8525C87.6231 46.49 87.6231 49.145 85.9855 50.7825C84.348 52.42 81.6931 52.42 80.0556 50.7825L77.959 48.6859C76.3215 47.0484 76.3215 44.3935 77.959 42.7559Z" fill="#FFE2A1"/>
<path d="M43.3547 63.3726C43.0402 62.9533 42.7257 62.534 42.516 62.1147C42.0967 61.0664 42.4112 60.1229 43.0402 59.2843C43.4595 58.6553 44.0885 58.1312 44.6126 57.7119C44.7174 57.6071 44.8223 57.6071 44.9271 57.5022C56.1437 46.7049 66.4168 36.5366 77.6334 25.7393C78.8914 24.4814 80.1493 22.909 82.0362 23.2234L71.4486 20.7076C69.5617 20.3931 68.1989 21.9655 66.941 23.3283C55.0954 34.5449 44.1933 45.0277 32.3477 56.2443C32.2429 56.3491 32.1381 56.3491 32.0332 56.4539C31.4043 56.9781 30.7753 57.5022 30.356 58.1312C29.727 58.9698 29.3077 60.0181 29.727 61.0664L43.3547 63.3726Z" fill="#FCB875"/>
<path d="M51.8457 45.5521C51.6361 45.1328 51.3216 44.8183 50.9023 44.5038C50.3781 44.0845 49.4347 44.2942 49.1202 44.8183C49.0154 45.028 48.9106 45.1328 48.9106 45.3424C47.7574 45.7618 46.7092 46.81 46.0802 48.068C45.6609 47.9631 45.1367 47.9631 44.8223 48.2776C44.2981 48.8018 44.2981 49.5356 44.7174 50.0597C45.1367 50.6887 45.6609 51.2128 46.4995 51.3176C47.0236 51.3176 47.6526 51.108 48.0719 50.7935C49.3299 50.2694 50.5878 49.3259 51.3216 48.1728C51.5313 47.9631 51.6361 47.7535 51.8457 47.439C52.1602 46.9149 52.1602 46.4956 52.1602 46.0762C52.0554 45.8666 51.9506 45.7618 51.8457 45.5521Z" fill="#FEC267"/>
<path d="M49.0154 43.5604C46.6043 43.4555 44.4029 46.1811 43.9836 48.2776C43.8788 49.0114 44.5078 49.6404 45.1367 49.6404C45.2416 49.6404 45.3464 49.6404 45.4512 49.6404C45.4512 49.6404 45.4512 49.6404 45.5561 49.6404C45.6609 49.6404 45.7657 49.6404 45.7657 49.5356C47.7574 49.0114 50.483 46.9149 50.6926 44.8183C50.7975 43.77 49.7492 43.3507 49.0154 43.5604Z" fill="#FFB15C"/>
<path d="M66.7313 30.6667C66.5217 30.2474 66.2072 29.9329 65.7879 29.6184C65.2637 29.1991 64.3203 29.4087 64.0058 29.9329C63.901 30.1425 63.7961 30.2474 63.7961 30.457C62.643 30.8763 61.5947 31.9246 60.9658 33.1825C60.5465 33.0777 60.0223 33.0777 59.7078 33.3922C59.1837 33.9163 59.1837 34.6501 59.603 35.1743C60.0223 35.8032 60.5465 36.3274 61.3851 36.4322C61.9092 36.4322 62.5382 36.2226 62.9575 35.9081C64.2155 35.3839 65.4734 34.4405 66.2072 33.2874C66.4168 33.0777 66.5217 32.8681 66.7313 32.5536C67.0458 32.0294 67.0458 31.6101 67.0458 31.1908C66.8362 30.9812 66.8362 30.7715 66.7313 30.6667Z" fill="#FEC267"/>
<path d="M63.7961 28.6746C61.3851 28.5698 59.1837 31.2953 58.7644 33.3919C58.6596 34.1257 59.2885 34.7547 59.9175 34.7547C60.0223 34.7547 60.1272 34.7547 60.232 34.7547C60.232 34.7547 60.232 34.7547 60.3368 34.7547C60.4416 34.7547 60.5465 34.7547 60.5465 34.6498C62.5382 34.1257 65.2637 32.0291 65.4734 29.9326C65.5782 28.8843 64.6348 28.465 63.7961 28.6746Z" fill="#FFB15C"/>
<path d="M63.272 30.1421C59.0789 27.4166 52.894 26.2635 48.1768 31.0855C43.3547 35.9076 43.774 42.407 45.7657 46.9146C45.9754 47.3339 46.3947 47.6484 46.9188 47.7532C47.1285 47.7532 47.2333 47.7532 47.443 47.7532C47.9671 47.6484 48.3864 47.3339 48.7009 46.9146C49.0154 46.3904 49.1202 45.8663 48.9105 45.3422C48.0719 43.3504 46.3947 38.2139 49.9588 33.8111C54.0471 28.8842 59.7078 31.9242 61.3851 32.9724C61.9092 33.2869 62.4334 33.2869 62.9575 32.9724C63.5865 32.658 64.0058 32.029 64.0058 31.4C63.901 30.8759 63.6913 30.4566 63.272 30.1421Z" fill="#FF8E8E"/>
<path d="M175.105 17.0548C175.398 15.2039 175.495 13.4505 175.105 11.7946C174.424 8.96963 171.988 7.89811 168.969 7.50846C167.605 7.31364 166.241 7.21623 165.072 7.21623C159.227 7.02141 138.284 5.94988 137.602 5.94988C134.29 6.1447 133.414 8.28775 133.219 11.0153C133.121 11.4049 129.907 48.8108 129.809 50.8564C129.712 53.584 130.296 56.2141 132.537 57.2856C134.777 58.3571 166.338 60.0131 167.8 60.0131C169.65 60.0131 170.722 59.3312 171.209 58.2597C171.696 57.7726 171.794 56.9933 171.988 56.1166C172.475 53.7788 175.3 21.5357 175.105 17.0548Z" fill="#B7F6F7"/>
<path d="M177.541 18.2231C177.638 16.3723 177.638 14.5215 177.054 12.9629C176.177 10.138 173.547 9.35872 170.625 9.1639C169.261 9.06649 167.897 9.1639 166.728 9.26131C160.883 9.55354 139.94 10.3328 139.258 10.4302C136.044 10.9173 135.264 13.1578 135.362 15.8853C135.362 16.2749 135.362 53.8756 135.459 55.8239C135.654 58.5514 136.433 61.1815 138.771 61.9608C141.109 62.8375 172.67 61.7659 174.131 61.5711C175.982 61.3763 176.956 60.597 177.346 59.5255C177.736 58.941 177.833 58.2591 177.93 57.3824C178.125 54.9472 178.125 22.6066 177.541 18.2231Z" fill="#2BD1D4"/>
<path d="M178.417 0.104877C173.839 -0.674412 170.917 3.02721 169.066 6.63143C167.313 9.94341 164.293 14.1321 164.293 18.0285C164.293 20.1716 165.267 21.8276 165.754 22.3146C167.02 23.3861 168.579 23.9706 170.235 23.0939C172.573 21.8276 173.45 18.3208 174.521 16.1777C175.398 14.4243 175.885 11.4046 173.255 10.7227C171.112 10.2356 170.527 13.0606 169.943 14.5217C169.456 15.6907 171.306 16.1777 171.794 15.0088C171.988 14.6191 172.086 14.2295 172.183 13.9373C172.281 13.645 172.378 13.3528 172.573 12.9632C172.768 13.3528 173.06 13.7424 173.255 14.1321C173.255 15.0088 172.086 16.47 171.794 17.2492C171.306 18.2234 171.014 19.3923 170.43 20.269C169.358 21.8276 168.092 21.6327 167.118 20.756C167.02 20.6586 166.338 20.0742 166.338 18.4182C166.338 15.1062 169.358 10.6253 170.625 8.09259C171.501 6.33919 172.378 4.48838 173.937 3.31945C177.638 0.494522 181.729 3.22204 180.853 7.80036C179.294 15.1062 174.911 22.2172 172.378 29.2308C171.988 30.3998 173.839 30.8868 174.229 29.7179C176.859 22.7043 181.145 15.6907 182.704 8.28742C183.191 4.78061 182.606 0.786756 178.417 0.104877Z" fill="#3281EE"/>
<path d="M179.879 19.1003C179.781 17.2495 179.586 15.4961 179.002 13.9375C177.833 11.21 175.203 10.6255 172.281 10.7229C170.917 10.7229 169.553 10.9178 168.384 11.1126C162.539 11.8919 141.791 14.522 141.109 14.6194C137.894 15.3987 137.407 17.6391 137.7 20.3666C137.7 20.7563 141.012 58.1622 141.304 60.2078C141.693 62.9353 142.668 65.468 145.103 66.0525C147.538 66.637 178.807 62.9353 180.366 62.6431C182.119 62.2535 183.093 61.4742 183.385 60.3052C183.775 59.7208 183.775 59.0389 183.775 58.0648C183.678 55.7269 180.853 23.4838 179.879 19.1003Z" fill="#B7F6F7"/>
<path d="M148.735 49.4925C148.286 49.547 148.01 49.3295 147.907 48.8402C147.804 48.3508 147.898 47.7007 148.189 46.8897C148.264 46.7169 148.34 46.5516 148.417 46.3939C148.493 46.2211 148.533 46.0816 148.539 45.9754C148.576 45.8815 148.676 45.6386 148.838 45.2468C149.013 44.8387 149.22 44.3524 149.457 43.7878C149.71 43.2219 149.967 42.6328 150.231 42.0207C150.509 41.4072 150.769 40.8331 151.009 40.2985C151.247 39.7489 151.449 39.2932 151.614 38.9313C151.778 38.5695 151.874 38.3723 151.901 38.3397C151.963 38.3494 152.019 38.3067 152.071 38.2115C152.137 38.1 152.173 37.9911 152.179 37.8849C152.198 37.7623 152.239 37.6303 152.302 37.4889C152.381 37.3461 152.448 37.257 152.506 37.2218C152.529 37.1442 152.559 37.0585 152.596 36.9646C152.648 36.8694 152.679 36.7912 152.689 36.7299C152.699 36.6687 152.724 36.6136 152.765 36.5647C152.805 36.5008 152.829 36.4382 152.839 36.3769C152.947 36.2315 153.086 36.0078 153.256 35.7059C153.425 35.3891 153.612 35.0327 153.819 34.637C154.041 34.2399 154.255 33.836 154.46 33.4252C154.681 33.0132 154.881 32.6256 155.061 32.2624C155.24 31.8992 155.387 31.5918 155.501 31.3402C155.615 31.0885 155.676 30.9321 155.686 30.8708C155.711 30.642 155.853 30.5389 156.112 30.5615C156.182 30.495 156.3 30.4695 156.468 30.485C156.468 30.485 156.486 30.5211 156.523 30.5934C156.573 30.6494 156.657 30.7478 156.775 30.8885C156.892 31.0141 156.949 31.1451 156.946 31.2813C156.957 31.4162 156.948 31.568 156.918 31.7369C156.905 31.9343 156.867 32.1113 156.806 32.2678C156.743 32.4093 156.625 32.6159 156.452 32.8879C156.278 33.1448 156.012 33.5533 155.654 34.1134C155.576 34.2562 155.49 34.3997 155.397 34.5438C155.318 34.6716 155.237 34.7919 155.157 34.9047C155.09 35.0012 155.037 35.0889 154.999 35.1678C154.959 35.2317 154.94 35.2786 154.943 35.3086C154.933 35.3699 154.889 35.4644 154.809 35.5922C154.744 35.7037 154.673 35.8458 154.598 36.0186C154.517 36.1314 154.411 36.2993 154.279 36.5223C154.148 36.7453 154.01 36.9765 153.864 37.2158C153.734 37.4538 153.617 37.6679 153.513 37.8583C153.408 38.0337 153.356 38.1364 153.359 38.1664C153.348 38.2127 153.33 38.2671 153.305 38.3297C153.295 38.391 153.255 38.4474 153.184 38.4989C153.123 38.4892 153.081 38.5306 153.059 38.6232C153.051 38.6994 153.046 38.7376 153.046 38.7376C153.057 38.8575 152.894 39.2418 152.559 39.8905C152.42 40.2048 152.212 40.6761 151.935 41.3046C151.673 41.9318 151.379 42.6297 151.054 43.3983C150.743 44.1507 150.438 44.8949 150.14 45.6309C149.841 46.3519 149.586 46.9784 149.376 47.5104C149.181 48.0411 149.076 48.3902 149.06 48.5577C149.031 48.9077 148.998 49.1371 148.962 49.246C148.928 49.3698 148.852 49.452 148.735 49.4925Z" fill="#FF8E8E"/>
<path d="M157.993 46.0289C157.93 46.0041 157.836 45.9596 157.709 45.8952C157.597 45.8145 157.476 45.7269 157.347 45.6325C157.231 45.5218 157.147 45.4235 157.094 45.3375C157.043 45.2665 157.031 45.1316 157.059 44.9328C157.101 44.7327 157.153 44.63 157.213 44.6247C157.26 44.6508 157.331 44.5917 157.424 44.4476C157.517 44.3035 157.609 44.1519 157.701 43.9928C157.791 43.8187 157.835 43.7167 157.833 43.6867C157.842 43.6255 157.876 43.5772 157.933 43.542C158.004 43.4904 158.068 43.4395 158.124 43.3893C158.188 43.2628 158.275 43.1344 158.384 43.0039C158.507 42.8572 158.603 42.7356 158.67 42.6391C158.776 42.4786 158.974 42.2347 159.262 41.9073C159.551 41.5799 159.831 41.2457 160.103 40.9046C160.388 40.5323 160.639 40.2081 160.856 39.9323C161.072 39.6414 161.183 39.4429 161.189 39.3367C161.189 39.3367 161.209 39.3122 161.25 39.2633C161.305 39.1981 161.368 39.1397 161.439 39.0881C161.51 39.0366 161.601 38.9531 161.712 38.8377C161.837 38.7209 161.941 38.6136 162.023 38.5158C162.043 38.3932 162.111 38.2211 162.227 37.9995C162.357 37.7615 162.491 37.561 162.627 37.3979C162.731 37.2075 162.827 37.0028 162.913 36.7838C162.998 36.5497 163.051 36.3789 163.072 36.2714C163.103 36.1026 163.094 36.0051 163.046 35.9791C162.998 35.9381 162.804 35.8796 162.465 35.8036C162.094 35.7153 161.693 35.7052 161.261 35.7734C160.843 35.8252 160.388 36.0615 159.896 36.4823C159.69 36.5457 159.501 36.6227 159.327 36.7135C159.169 36.8029 159.029 36.8453 158.908 36.8409C158.846 36.8162 158.772 36.7546 158.688 36.6563C158.604 36.558 158.513 36.4678 158.415 36.3858L158.149 35.9334L158.812 35.49C159.392 35.0463 159.923 34.7278 160.405 34.5345C160.901 34.3399 161.365 34.2916 161.797 34.3896C161.962 34.3752 162.113 34.3845 162.252 34.4176C162.39 34.4357 162.459 34.4448 162.459 34.4448C162.577 34.4193 162.733 34.4736 162.926 34.6077C163.118 34.7268 163.305 34.884 163.489 35.0794C163.687 35.2734 163.84 35.4714 163.948 35.6733C164.22 36.012 164.328 36.3876 164.274 36.8002C164.233 37.1965 164.05 37.6884 163.724 38.2758C163.657 38.3723 163.508 38.5742 163.279 38.8813C163.049 39.1885 162.785 39.5364 162.487 39.925C162.202 40.2974 161.937 40.6303 161.691 40.9238C161.46 41.216 161.31 41.4028 161.242 41.4843C161.141 41.5385 160.975 41.7117 160.743 42.0038C160.526 42.2797 160.289 42.5875 160.032 42.9273C159.788 43.2507 159.579 43.5409 159.406 43.7978C159.246 44.0384 159.181 44.1574 159.21 44.1548C159.201 44.2161 159.226 44.2441 159.286 44.2388C159.344 44.2186 159.439 44.18 159.57 44.1232C159.788 44.0285 160.074 43.9279 160.427 43.8214C160.795 43.7136 161.172 43.6201 161.558 43.5409C161.943 43.4467 162.276 43.3796 162.56 43.3396C162.858 43.2983 163.032 43.2982 163.081 43.3392C163.118 43.4115 163.143 43.4395 163.156 43.4232C163.184 43.3906 163.197 43.3743 163.197 43.3743C163.218 43.2667 163.403 43.2203 163.751 43.235C164.115 43.2484 164.443 43.2875 164.736 43.3525C164.905 43.383 165.036 43.4092 165.128 43.4313C165.236 43.4521 165.292 43.4924 165.297 43.5524C165.297 43.5524 165.316 43.5886 165.352 43.6609C165.402 43.7169 165.477 43.7934 165.576 43.8904C165.833 44.0642 165.874 44.189 165.7 44.2647C165.525 44.3405 165.133 44.3522 164.525 44.2999C164.135 44.3341 163.815 44.3849 163.564 44.4522C163.507 44.4875 163.38 44.5137 163.186 44.5308C162.991 44.5479 162.804 44.5718 162.626 44.6026C162.353 44.5963 162.085 44.635 161.82 44.7186C161.554 44.7873 161.239 44.898 160.875 45.0508C160.744 45.1076 160.54 45.1935 160.263 45.3084C159.986 45.4234 159.687 45.5403 159.365 45.6592C159.043 45.778 158.75 45.8718 158.484 45.9405C158.233 46.0078 158.069 46.0373 157.993 46.0289Z" fill="#FF8E8E"/>
<path d="M170.839 44.9463C170.734 44.9555 170.565 44.925 170.332 44.8548C170.113 44.7683 169.878 44.6681 169.626 44.5543C169.373 44.4255 169.166 44.3002 169.004 44.1785C168.647 43.8927 168.336 43.5348 168.072 43.1049C167.807 42.675 167.608 42.2092 167.473 41.7075C167.337 41.1908 167.286 40.6893 167.319 40.2031C167.399 39.2294 167.676 38.2535 168.149 37.2756C168.621 36.2826 169.189 35.4473 169.855 34.7696C170.214 34.3907 170.543 34.0974 170.842 33.89C171.14 33.6675 171.509 33.484 171.949 33.3396C172.11 33.2802 172.288 33.2419 172.483 33.2248C172.677 33.1927 172.826 33.1721 172.931 33.1628C173.23 33.1365 173.536 33.1702 173.846 33.2637C174.156 33.3573 174.424 33.4848 174.65 33.6463C174.874 33.7927 174.993 33.9409 175.006 34.0908C175.015 34.1957 175.015 34.2788 175.005 34.34C174.994 34.3863 174.926 34.3848 174.801 34.3353L174.576 34.3551L174.858 34.9873C174.929 35.102 174.995 35.2622 175.059 35.4681C175.121 35.659 175.159 35.8369 175.174 36.0018C175.186 36.1367 175.182 36.356 175.163 36.6597C175.144 36.9484 175.111 37.2609 175.065 37.5973C175.019 37.9336 174.971 38.2474 174.921 38.5388C174.871 38.8301 174.822 39.0459 174.774 39.1861C174.737 39.2799 174.714 39.3725 174.707 39.4637C174.714 39.5387 174.72 39.6061 174.725 39.6661C174.674 39.7763 174.595 39.9872 174.486 40.2988C174.393 40.6091 174.321 40.8268 174.272 40.952C174.217 41.0172 174.169 41.0742 174.128 41.1232C174.102 41.1708 174.122 41.2219 174.187 41.2766C174.189 41.3066 174.161 41.4073 174.1 41.5787C174.038 41.7352 173.968 41.8848 173.89 42.0276C173.827 42.1691 173.773 42.2418 173.728 42.2457C173.728 42.2457 173.706 42.2552 173.663 42.2742C173.633 42.2768 173.62 42.3006 173.624 42.3455C173.629 42.4055 173.545 42.5714 173.373 42.8433C173.199 43.1003 172.989 43.3755 172.743 43.6689C172.606 43.832 172.411 44.0153 172.157 44.2188C171.917 44.4061 171.674 44.5708 171.43 44.7131C171.186 44.8554 170.989 44.9331 170.839 44.9463ZM170.647 43.5358C170.812 43.5213 170.967 43.485 171.113 43.4269C171.258 43.3538 171.378 43.2602 171.474 43.146C171.728 42.9425 172.017 42.6226 172.341 42.1863C172.664 41.735 172.891 41.3073 173.021 40.9032C173.166 40.6639 173.273 40.4204 173.342 40.1726C173.425 39.9086 173.545 39.4676 173.702 38.8497C173.807 38.6743 173.872 38.4647 173.896 38.221C173.92 37.9772 173.925 37.7729 173.91 37.608C173.896 37.4431 173.876 37.2183 173.851 36.9335C173.841 36.6474 173.857 36.4043 173.9 36.2042C173.866 35.8145 173.836 35.5604 173.81 35.4418C173.784 35.3082 173.713 35.1861 173.597 35.0754C173.533 35.0357 173.447 34.998 173.338 34.9622C173.244 34.9251 173.145 34.9112 173.04 34.9204C172.935 34.9296 172.745 35.0067 172.471 35.1516C172.195 35.2815 172.001 35.3892 171.888 35.4747C171.788 35.5439 171.669 35.5619 171.53 35.5288C171.406 35.4943 171.341 35.4396 171.334 35.3647C171.316 35.1549 171.18 35.1517 170.926 35.3553C170.67 35.5438 170.396 35.8549 170.101 36.2886C169.855 36.582 169.647 36.8797 169.477 37.1816C169.321 37.4672 169.246 37.6399 169.251 37.6999C169.256 37.7599 169.24 37.8368 169.203 37.9306C169.166 38.0245 169.131 38.1334 169.096 38.2572C169.03 38.3687 168.956 38.549 168.872 38.798C168.788 39.0471 168.704 39.2961 168.62 39.5451C168.55 39.7778 168.505 39.9555 168.486 40.078C168.491 40.1379 168.505 40.3028 168.529 40.5726C168.551 40.8274 168.573 41.0672 168.592 41.292C168.615 41.5468 168.641 41.7635 168.672 41.9421C168.718 42.1193 168.769 42.2734 168.826 42.4043C168.881 42.5203 168.953 42.6499 169.041 42.7932C169.11 42.8929 169.212 43.0124 169.345 43.1517C169.491 43.2748 169.59 43.3643 169.64 43.4203C169.818 43.5557 169.961 43.6338 170.068 43.6546C170.175 43.6603 170.368 43.6208 170.647 43.5358Z" fill="#FF8E8E"/>
<path d="M148.735 49.4925C148.286 49.547 148.01 49.3295 147.907 48.8402C147.804 48.3508 147.898 47.7007 148.189 46.8897C148.264 46.7169 148.34 46.5516 148.417 46.3939C148.493 46.2211 148.533 46.0816 148.539 45.9754C148.576 45.8815 148.676 45.6386 148.838 45.2468C149.013 44.8387 149.22 44.3524 149.457 43.7878C149.71 43.2219 149.967 42.6328 150.231 42.0207C150.509 41.4072 150.769 40.8331 151.009 40.2985C151.247 39.7489 151.449 39.2932 151.614 38.9313C151.778 38.5695 151.874 38.3723 151.901 38.3397C151.963 38.3494 152.019 38.3067 152.071 38.2115C152.137 38.1 152.173 37.9911 152.179 37.8849C152.198 37.7623 152.239 37.6303 152.302 37.4889C152.381 37.3461 152.448 37.257 152.506 37.2218C152.529 37.1442 152.559 37.0585 152.596 36.9646C152.648 36.8694 152.679 36.7912 152.689 36.7299C152.699 36.6687 152.724 36.6136 152.765 36.5647C152.805 36.5008 152.829 36.4382 152.839 36.3769C152.947 36.2315 153.086 36.0078 153.256 35.7059C153.425 35.3891 153.612 35.0327 153.819 34.637C154.041 34.2399 154.255 33.836 154.46 33.4252C154.681 33.0132 154.881 32.6256 155.061 32.2624C155.24 31.8992 155.387 31.5918 155.501 31.3402C155.615 31.0885 155.676 30.9321 155.686 30.8708C155.711 30.642 155.853 30.5389 156.112 30.5615C156.182 30.495 156.3 30.4695 156.468 30.485C156.468 30.485 156.486 30.5211 156.523 30.5934C156.573 30.6494 156.657 30.7478 156.775 30.8885C156.892 31.0141 156.949 31.1451 156.946 31.2813C156.957 31.4162 156.948 31.568 156.918 31.7369C156.905 31.9343 156.867 32.1113 156.806 32.2678C156.743 32.4093 156.625 32.6159 156.452 32.8879C156.278 33.1448 156.012 33.5533 155.654 34.1134C155.576 34.2562 155.49 34.3997 155.397 34.5438C155.318 34.6716 155.237 34.7919 155.157 34.9047C155.09 35.0012 155.037 35.0889 154.999 35.1678C154.959 35.2317 154.94 35.2786 154.943 35.3086C154.933 35.3699 154.889 35.4644 154.809 35.5922C154.744 35.7037 154.673 35.8458 154.598 36.0186C154.517 36.1314 154.411 36.2993 154.279 36.5223C154.148 36.7453 154.01 36.9765 153.864 37.2158C153.734 37.4538 153.617 37.6679 153.513 37.8583C153.408 38.0337 153.356 38.1364 153.359 38.1664C153.348 38.2127 153.33 38.2671 153.305 38.3297C153.295 38.391 153.255 38.4474 153.184 38.4989C153.123 38.4892 153.081 38.5306 153.059 38.6232C153.051 38.6994 153.046 38.7376 153.046 38.7376C153.057 38.8575 152.894 39.2418 152.559 39.8905C152.42 40.2048 152.212 40.6761 151.935 41.3046C151.673 41.9318 151.379 42.6297 151.054 43.3983C150.743 44.1507 150.438 44.8949 150.14 45.6309C149.841 46.3519 149.586 46.9784 149.376 47.5104C149.181 48.0411 149.076 48.3902 149.06 48.5577C149.031 48.9077 148.998 49.1371 148.962 49.246C148.928 49.3698 148.852 49.452 148.735 49.4925Z" stroke="#FF8E8E"/>
<path d="M157.993 46.0289C157.93 46.0041 157.836 45.9596 157.709 45.8952C157.597 45.8145 157.476 45.7269 157.347 45.6325C157.231 45.5218 157.147 45.4235 157.094 45.3375C157.043 45.2665 157.031 45.1316 157.059 44.9328C157.101 44.7327 157.153 44.63 157.213 44.6247C157.26 44.6508 157.331 44.5917 157.424 44.4476C157.517 44.3035 157.609 44.1519 157.701 43.9928C157.791 43.8187 157.835 43.7167 157.833 43.6867C157.842 43.6255 157.876 43.5772 157.933 43.542C158.004 43.4904 158.068 43.4395 158.124 43.3893C158.188 43.2628 158.275 43.1344 158.384 43.0039C158.507 42.8572 158.603 42.7356 158.67 42.6391C158.776 42.4786 158.974 42.2347 159.262 41.9073C159.551 41.5799 159.831 41.2457 160.103 40.9046C160.388 40.5323 160.639 40.2081 160.856 39.9323C161.072 39.6414 161.183 39.4429 161.189 39.3367C161.189 39.3367 161.209 39.3122 161.25 39.2633C161.305 39.1981 161.368 39.1397 161.439 39.0881C161.51 39.0366 161.601 38.9531 161.712 38.8377C161.837 38.7209 161.941 38.6136 162.023 38.5158C162.043 38.3932 162.111 38.2211 162.227 37.9995C162.357 37.7615 162.491 37.561 162.627 37.3979C162.731 37.2075 162.827 37.0028 162.913 36.7838C162.998 36.5497 163.051 36.3789 163.072 36.2714C163.103 36.1026 163.094 36.0051 163.046 35.9791C162.998 35.9381 162.804 35.8796 162.465 35.8036C162.094 35.7153 161.693 35.7052 161.261 35.7734C160.843 35.8252 160.388 36.0615 159.896 36.4823C159.69 36.5457 159.501 36.6227 159.327 36.7135C159.169 36.8029 159.029 36.8453 158.908 36.8409C158.846 36.8162 158.772 36.7546 158.688 36.6563C158.604 36.558 158.513 36.4678 158.415 36.3858L158.149 35.9334L158.812 35.49C159.392 35.0463 159.923 34.7278 160.405 34.5345C160.901 34.3399 161.365 34.2916 161.797 34.3896C161.962 34.3752 162.113 34.3845 162.252 34.4176C162.39 34.4357 162.459 34.4448 162.459 34.4448C162.577 34.4193 162.733 34.4736 162.926 34.6077C163.118 34.7268 163.305 34.884 163.489 35.0794C163.687 35.2734 163.84 35.4714 163.948 35.6733C164.22 36.012 164.328 36.3876 164.274 36.8002C164.233 37.1965 164.05 37.6884 163.724 38.2758C163.657 38.3723 163.508 38.5742 163.279 38.8813C163.049 39.1885 162.785 39.5364 162.487 39.925C162.202 40.2974 161.937 40.6303 161.691 40.9238C161.46 41.216 161.31 41.4028 161.242 41.4843C161.141 41.5385 160.975 41.7117 160.743 42.0038C160.526 42.2797 160.289 42.5875 160.032 42.9273C159.788 43.2507 159.579 43.5409 159.406 43.7978C159.246 44.0384 159.181 44.1574 159.21 44.1548C159.201 44.2161 159.226 44.2441 159.286 44.2388C159.344 44.2186 159.439 44.18 159.57 44.1232C159.788 44.0285 160.074 43.9279 160.427 43.8214C160.795 43.7136 161.172 43.6201 161.558 43.5409C161.943 43.4467 162.276 43.3796 162.56 43.3396C162.858 43.2983 163.032 43.2982 163.081 43.3392C163.118 43.4115 163.143 43.4395 163.156 43.4232C163.184 43.3906 163.197 43.3743 163.197 43.3743C163.218 43.2667 163.403 43.2203 163.751 43.235C164.115 43.2484 164.443 43.2875 164.736 43.3525C164.905 43.383 165.036 43.4092 165.128 43.4313C165.236 43.4521 165.292 43.4924 165.297 43.5524C165.297 43.5524 165.316 43.5886 165.352 43.6609C165.402 43.7169 165.477 43.7934 165.576 43.8904C165.833 44.0642 165.874 44.189 165.7 44.2647C165.525 44.3405 165.133 44.3522 164.525 44.2999C164.135 44.3341 163.815 44.3849 163.564 44.4522C163.507 44.4875 163.38 44.5137 163.186 44.5308C162.991 44.5479 162.804 44.5718 162.626 44.6026C162.353 44.5963 162.085 44.635 161.82 44.7186C161.554 44.7873 161.239 44.898 160.875 45.0508C160.744 45.1076 160.54 45.1935 160.263 45.3084C159.986 45.4234 159.687 45.5403 159.365 45.6592C159.043 45.778 158.75 45.8718 158.484 45.9405C158.233 46.0078 158.069 46.0373 157.993 46.0289Z" stroke="#FF8E8E"/>
<path d="M170.839 44.9463C170.734 44.9555 170.565 44.925 170.332 44.8548C170.113 44.7683 169.878 44.6681 169.626 44.5543C169.373 44.4255 169.166 44.3002 169.004 44.1785C168.647 43.8927 168.336 43.5348 168.072 43.1049C167.807 42.675 167.608 42.2092 167.473 41.7075C167.337 41.1908 167.286 40.6893 167.319 40.2031C167.399 39.2294 167.676 38.2535 168.149 37.2756C168.621 36.2826 169.189 35.4473 169.855 34.7696C170.214 34.3907 170.543 34.0974 170.842 33.89C171.14 33.6675 171.509 33.484 171.949 33.3396C172.11 33.2802 172.288 33.2419 172.483 33.2248C172.677 33.1927 172.826 33.1721 172.931 33.1628C173.23 33.1365 173.536 33.1702 173.846 33.2637C174.156 33.3573 174.424 33.4848 174.65 33.6463C174.874 33.7927 174.993 33.9409 175.006 34.0908C175.015 34.1957 175.015 34.2788 175.005 34.34C174.994 34.3863 174.926 34.3848 174.801 34.3353L174.576 34.3551L174.858 34.9873C174.929 35.102 174.995 35.2622 175.059 35.4681C175.121 35.659 175.159 35.8369 175.174 36.0018C175.186 36.1367 175.182 36.356 175.163 36.6597C175.144 36.9484 175.111 37.2609 175.065 37.5973C175.019 37.9336 174.971 38.2474 174.921 38.5388C174.871 38.8301 174.822 39.0459 174.774 39.1861C174.737 39.2799 174.714 39.3725 174.707 39.4637C174.714 39.5387 174.72 39.6061 174.725 39.6661C174.674 39.7763 174.595 39.9872 174.486 40.2988C174.393 40.6091 174.321 40.8268 174.272 40.952C174.217 41.0172 174.169 41.0742 174.128 41.1232C174.102 41.1708 174.122 41.2219 174.187 41.2766C174.189 41.3066 174.161 41.4073 174.1 41.5787C174.038 41.7352 173.968 41.8848 173.89 42.0276C173.827 42.1691 173.773 42.2418 173.728 42.2457C173.728 42.2457 173.706 42.2552 173.663 42.2742C173.633 42.2768 173.62 42.3006 173.624 42.3455C173.629 42.4055 173.545 42.5714 173.373 42.8433C173.199 43.1003 172.989 43.3755 172.743 43.6689C172.606 43.832 172.411 44.0153 172.157 44.2188C171.917 44.4061 171.674 44.5708 171.43 44.7131C171.186 44.8554 170.989 44.9331 170.839 44.9463ZM170.647 43.5358C170.812 43.5213 170.967 43.485 171.113 43.4269C171.258 43.3538 171.378 43.2602 171.474 43.146C171.728 42.9425 172.017 42.6226 172.341 42.1863C172.664 41.735 172.891 41.3073 173.021 40.9032C173.166 40.6639 173.273 40.4204 173.342 40.1726C173.425 39.9086 173.545 39.4676 173.702 38.8497C173.807 38.6743 173.872 38.4647 173.896 38.221C173.92 37.9772 173.925 37.7729 173.91 37.608C173.896 37.4431 173.876 37.2183 173.851 36.9335C173.841 36.6474 173.857 36.4043 173.9 36.2042C173.866 35.8145 173.836 35.5604 173.81 35.4418C173.784 35.3082 173.713 35.1861 173.597 35.0754C173.533 35.0357 173.447 34.998 173.338 34.9622C173.244 34.9251 173.145 34.9112 173.04 34.9204C172.935 34.9296 172.745 35.0067 172.471 35.1516C172.195 35.2815 172.001 35.3892 171.888 35.4747C171.788 35.5439 171.669 35.5619 171.53 35.5288C171.406 35.4943 171.341 35.4396 171.334 35.3647C171.316 35.1549 171.18 35.1517 170.926 35.3553C170.67 35.5438 170.396 35.8549 170.101 36.2886C169.855 36.582 169.647 36.8797 169.477 37.1816C169.321 37.4672 169.246 37.6399 169.251 37.6999C169.256 37.7599 169.24 37.8368 169.203 37.9306C169.166 38.0245 169.131 38.1334 169.096 38.2572C169.03 38.3687 168.956 38.549 168.872 38.798C168.788 39.0471 168.704 39.2961 168.62 39.5451C168.55 39.7778 168.505 39.9555 168.486 40.078C168.491 40.1379 168.505 40.3028 168.529 40.5726C168.551 40.8274 168.573 41.0672 168.592 41.292C168.615 41.5468 168.641 41.7635 168.672 41.9421C168.718 42.1193 168.769 42.2734 168.826 42.4043C168.881 42.5203 168.953 42.6499 169.041 42.7932C169.11 42.8929 169.212 43.0124 169.345 43.1517C169.491 43.2748 169.59 43.3643 169.64 43.4203C169.818 43.5557 169.961 43.6338 170.068 43.6546C170.175 43.6603 170.368 43.6208 170.647 43.5358Z" stroke="#FF8E8E"/>
<path d="M178.417 0.104877C173.839 -0.674412 170.917 3.02721 169.066 6.63143C167.313 9.94341 164.293 14.1321 164.293 18.0285C164.293 20.1716 165.267 21.8276 165.754 22.3146C167.02 23.3861 168.579 23.9706 170.235 23.0939C171.209 22.5094 171.988 21.5353 172.573 20.4638C173.352 19.0026 175.008 15.1062 175.203 14.5217C175.69 13.158 175.982 11.5994 174.424 10.7227C174.034 10.5279 173.352 10.0408 172.086 10.6253C170.819 11.1123 170.332 13.3528 169.845 14.5217C169.358 15.6907 171.209 16.1777 171.696 15.0088C171.891 14.6191 171.988 14.2295 172.086 13.9373C172.183 13.645 172.281 13.3528 172.475 12.9632C172.768 12.2813 173.742 12.5735 173.547 13.2554C173.255 14.3269 173.06 14.7166 172.865 15.2036C172.183 16.8596 170.819 19.4897 170.332 20.269C169.261 21.8276 167.994 21.6327 167.02 20.756C166.923 20.6586 166.241 20.0742 166.241 18.4182C166.241 16.1777 167.605 13.3528 168.969 11.0149C168.774 11.0149 168.579 11.1123 168.482 11.1123C168.676 11.1123 168.871 11.1123 168.969 11.0149C169.553 9.94341 170.138 8.9693 170.527 8.09259C171.404 6.33919 172.281 4.48838 173.839 3.31945C177.541 0.494522 181.632 3.22204 180.755 7.80036C180.366 9.74858 179.781 11.6968 179.002 13.5476C179.099 13.645 179.099 13.7424 179.197 13.8399C179.586 14.6191 179.781 15.5933 179.879 16.5674C181.048 13.8399 182.022 11.1123 182.606 8.28742C183.191 4.78061 182.606 0.786756 178.417 0.104877Z" fill="#FFE2A1"/>
<path d="M171.988 10.7229C172.086 10.7229 172.183 10.7229 172.281 10.7229C172.67 10.7229 172.962 10.7229 173.255 10.7229C173.157 10.7229 173.157 10.7229 173.06 10.6255C172.67 10.6255 172.281 10.6255 171.988 10.7229Z" fill="#3281EE"/>
<path d="M250.927 22.6436C249.925 21.1172 248.824 19.71 247.498 18.7548C245.146 17.0772 242.615 17.949 240.174 19.5757C239.049 20.2777 238.007 21.176 237.094 21.9224C232.684 25.536 216.638 38.3641 216.017 38.9788C213.741 41.2905 214.486 43.4503 216.107 45.5766C216.328 45.9405 238.411 75.6438 239.699 77.1577C241.452 79.2147 243.579 80.8338 245.937 80.1007C248.306 79.3762 272.649 60.016 273.74 59.0195C275.069 57.7978 275.391 56.6073 275.108 55.4635C275.102 54.788 274.732 54.1787 274.261 53.412C273.026 51.4041 254.03 25.8008 250.934 22.628" fill="#CEBEF7"/>
<path d="M263.907 38.6362C260.919 35.5336 258.084 32.2938 255.386 28.9504C253.253 26.5334 251.209 24.0393 249.28 21.4509C248.034 19.8996 246.844 18.3117 245.726 16.6669C245.41 16.4728 245.092 16.3638 244.795 16.4074C244.545 16.4432 244.344 16.5616 244.158 16.6995C244.125 16.7136 244.096 16.7198 244.065 16.7393C244 16.8125 243.935 16.8725 243.868 16.9403C243.772 17.033 243.674 17.1203 243.568 17.2044C243.545 17.227 243.543 17.2667 243.528 17.2925C238.885 22.0194 226.749 32.3263 221.81 37.3867C221.576 37.6547 221.299 37.8963 221.191 38.2913C220.992 38.7767 221.004 39.3914 221.421 40.155C221.829 40.91 222.436 41.5279 222.971 42.1894C223.025 42.2564 223.087 42.2946 223.148 42.346C231.117 51.6617 239.088 60.9697 247.066 70.2753C247.13 70.3508 247.192 70.389 247.247 70.4428C247.247 70.4428 247.247 70.4428 247.25 70.4482C247.448 70.6859 247.642 70.9259 247.841 71.1503C248.35 71.765 248.878 72.3198 249.437 72.6611C249.631 72.8107 249.825 72.947 250.029 73.0468C250.972 73.5143 251.803 72.9837 252.352 72.3222C257.138 67.3857 267.565 55.6225 272.241 50.7779C272.774 50.3494 273.265 49.7323 273.188 48.8293C273.133 48.1881 272.839 47.578 272.44 46.9936C269.341 44.4613 266.581 41.3961 263.91 38.6284L263.907 38.6362Z" fill="#94C5FF"/>
<path d="M221.091 29.9996C221.283 30.7632 222.101 32.2202 222.426 32.9331C222.456 33.004 222.511 33.0578 222.55 33.1186C227.051 42.3711 231.56 51.6267 236.074 60.88C236.524 61.8103 238.818 65.9725 239.451 66.9668C239.451 66.9668 239.455 66.9777 239.463 66.9808C239.509 67.0579 239.576 67.1389 239.685 67.1826C240.449 67.5332 241.117 68.0537 241.913 68.3132C242.234 68.6272 242.928 68.3171 242.788 67.7639C242.65 67.2162 242.693 66.6552 242.737 66.0942C242.775 66.0779 242.82 66.0459 242.861 66.0218C243.334 66.2968 243.801 66.5742 244.326 66.7433C244.642 67.0596 245.339 66.7418 245.198 66.1886C245.067 65.6572 245.102 65.1196 245.147 64.5773C245.18 64.5633 245.202 64.5407 245.227 64.5235C245.688 64.7846 246.14 65.0557 246.651 65.224C246.965 65.5349 247.664 65.2225 247.523 64.6693C247.392 64.1512 247.428 63.619 247.47 63.0845C247.509 63.0682 247.537 63.0432 247.57 63.016C248.025 63.2793 248.472 63.5396 248.968 63.7017C249.284 64.018 249.978 63.7079 249.841 63.1469C249.714 62.6397 249.745 62.1099 249.784 61.5832C249.839 61.5466 249.889 61.5123 249.944 61.4757C250.389 61.7305 250.831 61.993 251.332 62.1528C251.654 62.4668 252.345 62.1513 252.205 61.5981C252.078 61.0908 252.103 60.5634 252.15 60.0398C252.183 60.0257 252.216 59.9985 252.247 59.979C252.694 60.2392 253.139 60.494 253.629 60.6585C253.951 60.9725 254.642 60.6569 254.502 60.1037C254.375 59.5965 254.408 59.0721 254.442 58.5478C254.513 58.5041 254.588 58.4527 254.66 58.4091C255.105 58.6639 255.544 58.921 256.04 59.0831C256.356 59.3994 257.047 59.0839 256.912 58.5284C256.788 58.0266 256.813 57.4991 256.855 56.9779C256.896 56.9537 256.94 56.9218 256.979 56.8922C257.424 57.147 257.864 57.4041 258.357 57.5607C258.673 57.8771 259.367 57.567 259.232 57.0115C259.107 56.5097 259.135 55.9877 259.173 55.4742C259.223 55.4399 259.27 55.4134 259.314 55.3815C259.752 55.6332 260.191 55.8903 260.676 56.0438C260.993 56.3601 261.689 56.0423 261.549 55.4891C261.427 54.9928 261.449 54.4863 261.491 53.9838C261.555 53.937 261.632 53.8911 261.704 53.8474C262.133 54.096 262.563 54.3445 263.043 54.5004C263.359 54.8167 264.052 54.5067 263.918 53.9511C263.799 53.479 263.815 52.9881 263.855 52.4933C263.929 52.4419 264.009 52.4014 264.084 52.35C264.503 52.59 264.914 52.8268 265.379 52.9765C265.7 53.2905 266.392 52.9749 266.251 52.4217C266.057 51.6208 266.233 50.7832 266.249 49.976C266.312 49.3098 265.546 48.8182 264.812 47.6611C263.066 44.8974 261.426 42.0044 259.893 39.2719C257.945 35.7945 256.165 32.2447 254.528 28.6208C253.188 25.9607 251.939 23.2555 250.817 20.4887C250.068 18.8151 249.373 17.1181 248.752 15.3829C248.719 15.3518 248.684 15.3284 248.653 15.3027C248.618 15.266 248.588 15.2271 248.537 15.1975C248.514 15.1881 248.501 15.1741 248.483 15.1624C248.433 15.1196 248.379 15.0845 248.322 15.0572C247.684 14.6528 247.123 14.1573 246.426 13.8557C246.137 13.5144 245.419 13.7513 245.502 14.3224C245.592 14.9231 245.471 15.5301 245.372 16.1277C244.892 15.7911 244.427 15.4288 243.88 15.1919C243.589 14.8451 242.876 15.0929 242.957 15.6586C243.038 16.2242 242.938 16.7899 242.841 17.361C242.386 17.0392 241.946 16.7049 241.423 16.4774C241.14 16.1338 240.418 16.3784 240.502 16.9495C240.583 17.5152 240.483 18.0808 240.383 18.6465C239.927 18.3192 239.481 17.9873 238.967 17.7684C238.682 17.4193 237.961 17.6639 238.044 18.235C238.132 18.8171 238.021 19.4006 237.92 19.9795C237.456 19.6492 236.998 19.3032 236.466 19.0726C236.178 18.7313 235.462 18.9736 235.543 19.5392C235.627 20.0971 235.531 20.655 235.428 21.2152C234.982 20.8965 234.547 20.5731 234.039 20.3518C233.753 20.0028 233.032 20.2474 233.115 20.8185C233.205 21.4193 233.082 22.0207 232.98 22.6261C232.497 22.2841 232.032 21.9218 231.488 21.6903C231.205 21.3467 230.483 21.5914 230.564 22.157C230.653 22.7258 230.548 23.2938 230.448 23.8594C229.992 23.5322 229.546 23.2003 229.032 22.9813C228.747 22.6322 228.028 22.8823 228.115 23.4456C228.196 24.0113 228.098 24.5824 227.996 25.1426C227.542 24.8208 227.096 24.4889 226.58 24.2645C226.298 23.9209 225.576 24.1655 225.657 24.7312C225.745 25.3132 225.634 25.8968 225.528 26.478C225.061 26.1422 224.605 25.8017 224.079 25.5687C223.797 25.2251 223.07 25.472 223.156 26.0354C223.21 26.432 223.179 26.8262 223.121 27.2189C222.837 27.0241 222.553 26.8425 222.237 26.707C221.954 26.3634 221.232 26.608 221.311 27.1682C221.433 27.9808 221.172 28.8028 221.083 29.603C221.09 29.6194 221.092 29.6248 221.086 29.6404C221.072 29.73 221.074 29.8391 221.115 29.9957L221.091 29.9996Z" fill="#FFE2A1"/>
<path d="M262.299 23.0575C261.809 21.4922 261.195 19.9994 260.279 18.8555C258.66 16.825 256.247 16.9488 253.735 17.7606C252.58 18.0941 251.465 18.6106 250.491 19.0344C245.709 21.1162 228.57 28.3508 228.051 28.6445C225.518 30.0851 225.63 32.1412 226.512 34.3782C226.618 34.7459 238.453 65.8903 239.197 67.5211C240.213 69.7261 241.652 71.653 243.885 71.6063C246.111 71.5565 271.941 60.7584 273.133 60.1639C274.576 59.4355 275.148 58.4803 275.179 57.4214C275.344 56.8277 275.172 56.2168 274.955 55.4385C274.376 53.3947 264.204 26.5536 262.299 23.0575" fill="#B7F6F7"/>
<path d="M273.936 45.5136C272.327 41.5165 270.902 37.4532 269.652 33.3471C268.576 30.3092 267.612 27.2299 266.796 24.1063C266.22 22.2036 265.713 20.2838 265.288 18.3421C265.063 18.0445 264.816 17.8279 264.52 17.7547C264.273 17.6923 264.043 17.7266 263.818 17.7905C263.786 17.7912 263.75 17.7811 263.712 17.7975C263.619 17.8372 263.543 17.8699 263.45 17.9097C263.33 17.9611 263.2 18.0039 263.073 18.039C263.045 18.0507 263.022 18.0865 262.997 18.1037C256.921 20.7526 241.811 25.7752 235.343 28.6244C235.025 28.7864 234.683 28.9072 234.433 29.2274C234.071 29.6021 233.848 30.1818 233.952 31.0412C234.045 31.8921 234.378 32.6985 234.623 33.5104C234.65 33.5891 234.691 33.6553 234.727 33.7239C238.634 45.3418 242.554 56.9606 246.47 68.5684C246.499 68.6658 246.538 68.7266 246.579 68.7928C246.67 69.0959 246.77 69.3888 246.867 69.6764C247.107 70.4321 247.395 71.1482 247.781 71.6733C247.904 71.8853 248.036 72.0871 248.183 72.2499C248.887 73.033 249.849 72.853 250.612 72.4487C256.9 69.6634 270.969 62.6469 277.112 59.8983C277.769 59.7004 278.451 59.3178 278.721 58.4405C278.908 57.8242 278.866 57.1518 278.718 56.4599C276.789 52.9545 275.374 49.0806 273.934 45.5081L273.936 45.5136Z" fill="#FF8E8E"/>
<path d="M260.792 28.5645C259.971 26.9213 259.044 25.3887 257.825 24.2776C255.678 22.325 253.042 22.8929 250.414 24.2322C249.2 24.804 248.057 25.5714 247.059 26.2119C242.151 29.3548 224.523 40.3433 223.996 40.7562C223.698 40.9939 222.882 41.7114 222.663 41.9537C221.024 43.7925 222.101 45.3126 223.307 47.3587C223.487 47.7467 242.027 80.0141 243.135 81.6822C244.645 83.9403 246.575 85.8056 249.023 85.3569C251.478 84.9113 278.073 68.4535 279.272 67.591C280.746 66.5267 281.202 65.3759 281.053 64.2002C281.133 63.527 280.831 62.8686 280.451 62.0567C279.456 59.9008 263.511 32.0926 260.789 28.5591" fill="#CEBEF7"/>
<path d="M240.22 69.4709C234.499 60.5799 228.622 51.7169 223.138 42.6856C223.073 42.5781 222.835 42.2026 222.745 42.1441C222.635 41.8426 221.873 42.6404 220.968 42.938C220.94 42.9497 220.584 43.051 220.556 43.0627C220.249 43.1297 219.945 43.1889 219.612 43.2091C217.985 43.2994 216.913 42.3644 216.366 41.043C215.878 39.8579 216.583 38.9424 216.409 38.6424C216.32 38.4804 215.527 39.4465 215.423 39.5361C215.289 39.6584 214.5 40.8162 214.378 41.8883C214.254 42.9682 214.94 44.133 215.435 45.2122C217.108 48.8462 229.91 70.2224 232.538 74.7127C232.553 74.7774 233.205 75.8791 233.506 76.37C234.152 77.4554 234.798 78.5407 235.455 79.6214C235.966 80.4676 238.683 85.3459 238.894 85.5392C241.487 87.8821 245.683 87.2652 248.613 85.7576C248.787 85.6961 248.949 85.6073 249.203 85.46C249.517 85.2738 250.011 85.1328 250.494 84.797C250.015 83.8464 242.96 73.7259 240.228 69.474L240.22 69.4709Z" fill="#855CEA"/>
<path d="M242.766 67.8188C242.655 67.8469 242.591 67.9069 242.536 67.9754C241.892 68.1741 241.338 68.6758 241.07 69.4363C240.567 70.8527 241.414 72.5879 242.874 72.937C244.224 73.2557 245.807 71.8416 245.97 70.461C246.188 68.6183 244.278 67.416 242.766 67.8188V67.8188Z" fill="#855CEA"/>
<path d="M229.569 45.3398C229.446 45.3671 229.362 45.4286 229.304 45.505C228.56 45.6951 227.911 46.2444 227.565 47.096C226.922 48.6823 227.803 50.6933 229.442 51.1593C230.964 51.5917 232.827 50.0639 233.081 48.5025C233.427 46.4175 231.317 44.9589 229.575 45.3375L229.569 45.3398Z" fill="#855CEA"/>
<path d="M236.249 56.9965C236.144 57.0222 236.069 57.0736 236.015 57.1422C235.357 57.3081 234.789 57.7904 234.484 58.5407C233.918 59.9322 234.689 61.7001 236.132 62.1147C237.47 62.4965 239.107 61.1494 239.334 59.7805C239.639 57.9456 237.784 56.6615 236.252 57.0019L236.249 56.9965Z" fill="#855CEA"/>
<path d="M243.041 67.5696C242.936 67.5953 242.861 67.6468 242.806 67.7153C242.148 67.8813 241.58 68.3635 241.275 69.1138C240.71 70.5054 241.48 72.2733 242.923 72.6878C244.262 73.0697 245.899 71.7226 246.125 70.3536C246.43 68.5187 244.576 67.2346 243.043 67.5751L243.041 67.5696Z" fill="#855CEA"/>
<path d="M227.615 49.6377C228.464 52.0562 225.243 53.6237 222.971 53.8807C222.774 53.8877 222.585 53.8979 222.399 53.887C222.201 53.8753 221.961 53.8425 221.701 53.7794C221.659 53.7716 221.168 53.6205 221.093 53.5947C220.491 53.3812 219.894 53.0563 219.551 52.648C219.1 51.8665 218.666 51.11 218.263 50.4111C217.932 50.6627 217.637 50.9697 217.415 51.3102C217.018 51.9194 216.845 52.4648 216.861 53.1941C216.863 53.29 216.886 53.3897 216.907 53.484C216.879 53.78 216.904 54.0792 217.023 54.3574C217.363 56.8522 219.721 57.8044 222.451 57.6222C222.398 57.5287 222.347 57.4406 222.296 57.3526L222.307 57.3479C222.355 57.4438 222.398 57.5287 222.451 57.6222C227.25 57.2959 233.198 53.4167 231.312 48.0662C230.538 45.8675 226.856 47.4451 227.625 49.6462L227.615 49.6377Z" fill="#FFE2A1"/>
<path d="M235.381 58.2846L235.229 58.35C233.894 58.8961 233.749 60.1849 234.3 61.0334C234.489 62.3789 232.327 63.7961 231.43 64.4C230.218 65.2165 228.994 65.5086 227.996 65.0777C227.993 65.0722 227.98 65.0715 227.972 65.0683C227.869 65.0224 227.771 64.9608 227.676 64.9047C227.049 64.4956 226.511 64.0094 225.932 63.5606C225.576 62.9576 225.224 62.36 224.864 61.746C224.449 61.9236 222.072 63.3813 222.794 65.0214C224.079 67.9441 226.458 69.0677 229.071 68.8519C229.057 68.8192 229.04 68.7943 229.02 68.7639C229.026 68.7615 229.031 68.7592 229.039 68.7623L229.076 68.8496C230.211 68.7569 231.407 68.4126 232.592 67.8337C235.476 66.4298 239.583 62.7718 237.917 59.1861C237.472 58.2215 236.34 57.8997 235.384 58.29L235.381 58.2846Z" fill="#FFE2A1"/>
<path d="M232.54 74.7187C232.555 74.7834 233.208 75.8851 233.509 76.376C234.154 77.4613 234.8 78.5467 235.457 79.6274C235.525 79.7404 235.631 79.9274 235.766 80.1533C235.954 80.1245 236.139 80.1035 236.324 80.0692C240.638 79.2598 245.352 75.1352 244.756 70.3683C244.486 68.2179 241.317 68.6268 240.872 70.3737C240.094 72.1142 239.073 73.152 237.464 74.1711C236.613 74.7165 233.861 76.2638 233.273 75.4955L232.535 74.721L232.54 74.7187Z" fill="#FFE2A1"/>
<path d="M233.506 76.3702C233.205 75.8794 232.553 74.7776 232.538 74.713C232.289 74.2836 231.943 73.7024 231.527 73.0027C230.799 72.8694 229.995 73.1039 229.554 73.7771C228.405 75.5091 228.527 77.1484 229.992 78.6702C231.503 80.2371 233.716 80.4444 235.759 80.1499C235.626 79.9162 235.515 79.7315 235.449 79.624C234.792 78.5433 234.147 77.4579 233.501 76.3726L233.506 76.3702Z" fill="#FFE2A1"/>
</g>
<defs>
<clipPath id="clip0_1_62">
<rect width="320" height="208.193" fill="white"/>
</clipPath>
</defs>
</svg>
