<svg width="17" height="17" viewBox="0 0 17 17" fill="none" xmlns="http://www.w3.org/2000/svg">
<path d="M15.8971 11.2341C17.5768 7.14881 15.6266 2.47538 11.5413 0.795713C7.45601 -0.883956 2.78259 1.06619 1.10292 5.15149C-0.576751 9.23678 1.3734 13.9102 5.45869 15.5899C9.54399 17.2695 14.2174 15.3194 15.8971 11.2341Z" fill="#16A478"/>
<path fill-rule="evenodd" clip-rule="evenodd" d="M5.99389 2.31244L5.66403 2.17306C5.59511 2.14153 5.52064 2.1239 5.44489 2.1212C5.36914 2.1185 5.29361 2.13077 5.22261 2.15731C5.15161 2.18386 5.08655 2.22415 5.03116 2.27588C4.97576 2.32761 4.93112 2.38977 4.89978 2.45878L4.69072 2.95589C4.37932 3.73693 4.28573 4.58784 4.41991 5.41788C4.55409 6.24793 4.91102 7.02601 5.45264 7.66915C5.45264 7.66915 5.56182 7.79691 5.73372 7.98739L5.84522 8.09889C5.68992 8.09497 5.53456 8.10352 5.38063 8.12445C4.88341 8.18295 4.41051 8.37191 4.00989 8.67217C3.60927 8.97243 3.29518 9.37331 3.0995 9.83413L2.99497 10.0873C2.93286 10.2442 2.9351 10.4193 3.00119 10.5745C3.06729 10.7297 3.19192 10.8527 3.34806 10.9166L3.60358 11.0258C4.12364 11.2575 4.69832 11.3385 5.26217 11.2597C5.82603 11.1808 6.35643 10.9453 6.79298 10.5798C6.79298 10.5798 7.89174 9.72263 8.46783 7.36484C9.07876 5.38337 8.02182 3.18354 5.99389 2.31244ZM14.4239 5.78291L14.7561 5.91532C14.8287 5.94068 14.8954 5.98037 14.9524 6.03202C15.0093 6.08368 15.0553 6.14625 15.0876 6.21602C15.1199 6.28579 15.1378 6.36134 15.1403 6.43817C15.1428 6.51501 15.1299 6.59157 15.1022 6.66331L14.9001 7.16274C14.5721 7.93699 14.0394 8.60727 13.3592 9.10165C12.6791 9.59603 11.8771 9.89583 11.0394 9.96886C11.0394 9.96886 10.8721 9.99673 10.6143 9.99673H10.4563C10.572 10.1038 10.6784 10.2203 10.7746 10.3452C11.0865 10.7367 11.2897 11.2036 11.3635 11.6987C11.4373 12.1939 11.3792 12.6997 11.195 13.1652L11.0905 13.4208C11.0235 13.5757 10.8982 13.6981 10.7418 13.7615C10.5854 13.8249 10.4103 13.8244 10.2542 13.7599L9.99407 13.6577C9.46256 13.4563 8.99795 13.1103 8.65274 12.6588C8.30752 12.2072 8.09545 11.6682 8.04047 11.1025C8.04047 11.1025 7.86161 9.73192 9.11135 7.64127C10.0707 5.79453 12.3704 4.97453 14.4239 5.78291Z" fill="#FECA0D"/>
<path fill-rule="evenodd" clip-rule="evenodd" d="M5.72679 7.98506L5.81042 8.07101L5.83829 8.09656C6.28198 8.04778 6.89756 7.89447 6.99977 7.44382C6.99977 7.44382 3.69421 6.05237 4.62339 3.09294C4.31564 3.9279 4.25607 4.83407 4.45186 5.70212C4.64765 6.57018 5.09043 7.36305 5.72679 7.98506ZM10.6166 9.99674H10.4958L10.4586 9.99906C10.1775 9.64597 9.84767 9.10937 10.0916 8.71679C10.0916 8.71679 13.4227 10.0548 14.842 7.29515C14.4733 8.10501 13.8782 8.79094 13.1285 9.27028C12.3787 9.74962 11.5064 10.0019 10.6166 9.99674ZM8.03577 11.0211V11.0931C8.05777 11.3305 8.10767 11.5644 8.18443 11.79V11.8016C8.22404 11.9162 8.27138 12.028 8.32613 12.1362C8.34424 12.1771 8.36519 12.2167 8.38885 12.2546C8.45212 12.371 8.52353 12.4828 8.60256 12.5891C8.63042 12.6286 8.6606 12.6657 8.69078 12.7029L8.69079 12.7029L8.69083 12.7029C8.77952 12.8125 8.87577 12.9158 8.97888 13.0119C9.03231 13.0607 9.08574 13.1071 9.14149 13.1513C9.25208 13.2427 9.36932 13.3258 9.49225 13.3998C9.65162 13.5029 9.81948 13.5923 9.99401 13.667L10.2542 13.7692L10.3122 13.7878H10.3285H10.3703H10.3889H10.4447H10.5794H10.6305C7.69429 12.7285 8.50732 9.07219 8.67225 8.44499C8.02879 9.81088 8.02183 10.7563 8.03577 11.0211ZM6.8256 10.5449L6.84186 10.5287C7.03699 10.3498 7.6967 9.67384 8.26118 8.24522C7.93364 8.8097 5.94056 11.9805 3.10889 10.6681C3.11257 10.6745 3.11807 10.6806 3.12338 10.6864C3.13146 10.6954 3.13908 10.7038 3.13908 10.7122L3.15302 10.7261L3.17858 10.754L3.19251 10.7679L3.22736 10.8028L3.27149 10.8376H3.28543L3.3226 10.8609H3.33886L3.39229 10.8864L3.64781 10.9956C3.81604 11.0682 3.9901 11.1265 4.16815 11.1698C4.30822 11.2021 4.45021 11.2253 4.59325 11.2395L4.80464 11.2534C4.94577 11.2585 5.08709 11.2531 5.22741 11.2372L5.37143 11.2186C5.50239 11.198 5.63195 11.1693 5.75937 11.1326L5.88713 11.0908C6.00168 11.053 6.11345 11.0072 6.22163 10.9538C6.43896 10.8475 6.64191 10.714 6.8256 10.5566V10.5449Z" fill="#F0B103"/>
</svg>
